# MagicaVoxel @ Ephtracy

# group
o 

# material
mtllib house_model.mtl
usemtl palette

# normals
vn -1 0 0
vn 1 0 0
vn 0 0 1
vn 0 0 -1
vn 0 -1 0
vn 0 1 0

# texcoords
vt 0.00976563 0.5
vt 0.623047 0.5
vt 0.853516 0.5
vt 0.857422 0.5
vt 0.994141 0.5

# verts
v -2 0 2
v -2 0 -2
v -2 3 2
v -2 3 -2
v -2 3.2 2
v -2 3.2 -2
v -1.7 3.2 1.8
v -1.7 3.2 -1.7
v -1.7 3.3 1.8
v -1.7 3.3 -1.7
v -1.5 3.3 1.6
v -1.5 3.3 -1.5
v -1.5 3.4 1.6
v -1.5 3.4 -1.5
v -1.2 3.4 1.3
v -1.2 3.4 -1.2
v -1.2 3.5 1.3
v -1.2 3.5 -1.2
v -1.1 3.5 1.1
v -1.1 3.5 -1.1
v -1.1 3.6 1.1
v -1.1 3.6 -1.1
v -0.8 3.6 0.8
v -0.8 3.6 -0.8
v -0.8 3.7 0.8
v -0.8 3.7 -0.8
v -0.7 3.7 0.7
v -0.7 3.7 -0.7
v -0.7 3.8 0.7
v -0.7 3.8 -0.7
v -0.4 3.8 0.4
v -0.4 3.8 -0.4
v -0.4 3.9 0.4
v -0.4 3.9 -0.4
v -0.3 3.9 0.3
v -0.3 3.9 -0.3
v -0.3 4 0.3
v -0.3 4 -0.3
v 0.3 3.9 0.3
v 0.3 3.9 -0.3
v 0.3 4 0.3
v 0.3 4 -0.3
v 0.4 3.8 0.4
v 0.4 3.8 -0.4
v 0.4 3.9 0.4
v 0.4 3.9 -0.4
v 0.7 3.7 0.7
v 0.7 3.7 -0.7
v 0.7 3.8 0.7
v 0.7 3.8 -0.7
v 0.8 3.6 0.8
v 0.8 3.6 -0.8
v 0.8 3.7 0.8
v 0.8 3.7 -0.8
v 1.1 3.5 1.1
v 1.1 3.5 -1.1
v 1.1 3.6 1.1
v 1.1 3.6 -1.1
v 1.2 3.4 1.3
v 1.2 3.4 -1.2
v 1.2 3.5 1.3
v 1.2 3.5 -1.2
v 1.5 3.3 1.6
v 1.5 3.3 -1.5
v 1.5 3.4 1.6
v 1.5 3.4 -1.5
v 1.7 3.2 1.8
v 1.7 3.2 -1.7
v 1.7 3.3 1.8
v 1.7 3.3 -1.7
v 2 0 2
v 2 0 -2
v 2 1.8 1.4
v 2 1.8 -1.4
v 2 1.9 1.3
v 2 1.9 -1.3
v 2 2.5 1.3
v 2 2.5 -1.3
v 2 2.6 1.4
v 2 2.6 -1.4
v 2 3 2
v 2 3 -2
v 2 3.2 2
v 2 3.2 -2
v -2 0 2
v -2 3 2
v -2 3.2 2
v -1.5 1.6 2
v -1.5 2.4 2
v -1.4 1.7 2
v -1.4 2.3 2
v -0.6 0 2
v -0.6 1.5 2
v -0.6 1.7 2
v -0.6 2.3 2
v -0.5 0 2
v -0.5 1.4 2
v -0.5 1.6 2
v -0.5 2.4 2
v 0.2 0.5 2
v 0.2 0.7 2
v 0.4 0.5 2
v 0.4 0.7 2
v 0.5 0 2
v 0.5 1.4 2
v 0.5 1.6 2
v 0.5 2.4 2
v 0.6 0 2
v 0.6 1.5 2
v 0.6 1.7 2
v 0.6 2.3 2
v 1.4 1.7 2
v 1.4 2.3 2
v 1.5 1.6 2
v 1.5 2.4 2
v 2 0 2
v 2 3 2
v 2 3.2 2
v -1.7 3.2 1.8
v -1.7 3.3 1.8
v 1.7 3.2 1.8
v 1.7 3.3 1.8
v -1.5 3.3 1.6
v -1.5 3.4 1.6
v 1.5 3.3 1.6
v 1.5 3.4 1.6
v -1.2 3.4 1.3
v -1.2 3.5 1.3
v 1.2 3.4 1.3
v 1.2 3.5 1.3
v -1.1 3.5 1.1
v -1.1 3.6 1.1
v 1.1 3.5 1.1
v 1.1 3.6 1.1
v -0.8 3.6 0.8
v -0.8 3.7 0.8
v 0.8 3.6 0.8
v 0.8 3.7 0.8
v -0.7 3.7 0.7
v -0.7 3.8 0.7
v 0.7 3.7 0.7
v 0.7 3.8 0.7
v -0.4 3.8 0.4
v -0.4 3.9 0.4
v 0.4 3.8 0.4
v 0.4 3.9 0.4
v -0.3 3.9 0.3
v -0.3 4 0.3
v 0.3 3.9 0.3
v 0.3 4 0.3
v -0.3 3.9 -0.3
v -0.3 4 -0.3
v 0.3 3.9 -0.3
v 0.3 4 -0.3
v -0.4 3.8 -0.4
v -0.4 3.9 -0.4
v 0.4 3.8 -0.4
v 0.4 3.9 -0.4
v -0.7 3.7 -0.7
v -0.7 3.8 -0.7
v 0.7 3.7 -0.7
v 0.7 3.8 -0.7
v -0.8 3.6 -0.8
v -0.8 3.7 -0.8
v 0.8 3.6 -0.8
v 0.8 3.7 -0.8
v -1.1 3.5 -1.1
v -1.1 3.6 -1.1
v 1.1 3.5 -1.1
v 1.1 3.6 -1.1
v -1.2 3.4 -1.2
v -1.2 3.5 -1.2
v 1.2 3.4 -1.2
v 1.2 3.5 -1.2
v -1.5 3.3 -1.5
v -1.5 3.4 -1.5
v 1.5 3.3 -1.5
v 1.5 3.4 -1.5
v -1.7 3.2 -1.7
v -1.7 3.3 -1.7
v 1.7 3.2 -1.7
v 1.7 3.3 -1.7
v -2 0 -2
v -2 3 -2
v -2 3.2 -2
v 2 0 -2
v 2 3 -2
v 2 3.2 -2
v -2 0 2
v -0.6 0 2
v -0.5 0 2
v 0.5 0 2
v 0.6 0 2
v 2 0 2
v -0.6 0 1.9
v -0.5 0 1.9
v 0.5 0 1.9
v 0.6 0 1.9
v -2 0 -2
v 2 0 -2
v -2 3.2 2
v 2 3.2 2
v -1.7 3.2 1.8
v 1.7 3.2 1.8
v -1.7 3.2 -1.7
v 1.7 3.2 -1.7
v -2 3.2 -2
v 2 3.2 -2
v -1.7 3.3 1.8
v 1.7 3.3 1.8
v -1.5 3.3 1.6
v 1.5 3.3 1.6
v -1.5 3.3 -1.5
v 1.5 3.3 -1.5
v -1.7 3.3 -1.7
v 1.7 3.3 -1.7
v -1.5 3.4 1.6
v 1.5 3.4 1.6
v -1.4 3.4 1.5
v 1.4 3.4 1.5
v -1.2 3.4 1.3
v 1.2 3.4 1.3
v -1.2 3.4 -1.2
v 1.2 3.4 -1.2
v -1.4 3.4 -1.4
v 1.4 3.4 -1.4
v -1.5 3.4 -1.5
v 1.5 3.4 -1.5
v -1.2 3.5 1.3
v 1.2 3.5 1.3
v -1.1 3.5 1.1
v 1.1 3.5 1.1
v -1.1 3.5 -1.1
v 1.1 3.5 -1.1
v -1.2 3.5 -1.2
v 1.2 3.5 -1.2
v -1.1 3.6 1.1
v 1.1 3.6 1.1
v -1 3.6 1
v 1 3.6 1
v -0.8 3.6 0.8
v 0.8 3.6 0.8
v -0.8 3.6 -0.8
v 0.8 3.6 -0.8
v -1 3.6 -1
v 1 3.6 -1
v -1.1 3.6 -1.1
v 1.1 3.6 -1.1
v -0.8 3.7 0.8
v 0.8 3.7 0.8
v -0.7 3.7 0.7
v 0.7 3.7 0.7
v -0.7 3.7 -0.7
v 0.7 3.7 -0.7
v -0.8 3.7 -0.8
v 0.8 3.7 -0.8
v -0.7 3.8 0.7
v 0.7 3.8 0.7
v -0.6 3.8 0.6
v 0.6 3.8 0.6
v -0.4 3.8 0.4
v 0.4 3.8 0.4
v -0.4 3.8 -0.4
v 0.4 3.8 -0.4
v -0.6 3.8 -0.6
v 0.6 3.8 -0.6
v -0.7 3.8 -0.7
v 0.7 3.8 -0.7
v -0.4 3.9 0.4
v 0.4 3.9 0.4
v -0.3 3.9 0.3
v 0.3 3.9 0.3
v -0.3 3.9 -0.3
v 0.3 3.9 -0.3
v -0.4 3.9 -0.4
v 0.4 3.9 -0.4
v -0.3 4 0.3
v 0.3 4 0.3
v -0.2 4 0.2
v 0.2 4 0.2
v -0.2 4 -0.2
v 0.2 4 -0.2
v -0.3 4 -0.3
v 0.3 4 -0.3

# faces
f 3/1/1 2/1/1 1/1/1
f 4/1/1 2/1/1 3/1/1
f 5/3/1 4/3/1 3/3/1
f 6/3/1 4/3/1 5/3/1
f 9/3/1 8/3/1 7/3/1
f 10/3/1 8/3/1 9/3/1
f 13/4/1 12/4/1 11/4/1
f 14/4/1 12/4/1 13/4/1
f 17/3/1 16/3/1 15/3/1
f 18/3/1 16/3/1 17/3/1
f 21/4/1 20/4/1 19/4/1
f 22/4/1 20/4/1 21/4/1
f 25/3/1 24/3/1 23/3/1
f 26/3/1 24/3/1 25/3/1
f 29/4/1 28/4/1 27/4/1
f 30/4/1 28/4/1 29/4/1
f 33/3/1 32/3/1 31/3/1
f 34/3/1 32/3/1 33/3/1
f 37/4/1 36/4/1 35/4/1
f 38/4/1 36/4/1 37/4/1
f 39/4/2 40/4/2 41/4/2
f 41/4/2 40/4/2 42/4/2
f 43/3/2 44/3/2 45/3/2
f 45/3/2 44/3/2 46/3/2
f 47/4/2 48/4/2 49/4/2
f 49/4/2 48/4/2 50/4/2
f 51/3/2 52/3/2 53/3/2
f 53/3/2 52/3/2 54/3/2
f 55/4/2 56/4/2 57/4/2
f 57/4/2 56/4/2 58/4/2
f 59/3/2 60/3/2 61/3/2
f 61/3/2 60/3/2 62/3/2
f 63/4/2 64/4/2 65/4/2
f 65/4/2 64/4/2 66/4/2
f 67/3/2 68/3/2 69/3/2
f 69/3/2 68/3/2 70/3/2
f 71/1/2 72/1/2 73/1/2
f 73/1/2 72/1/2 74/1/2
f 73/5/2 74/5/2 75/5/2
f 75/5/2 74/5/2 76/5/2
f 73/5/2 75/5/2 77/5/2
f 75/2/2 76/2/2 77/2/2
f 76/5/2 74/5/2 78/5/2
f 77/2/2 76/2/2 78/2/2
f 71/1/2 73/1/2 79/1/2
f 73/5/2 77/5/2 79/5/2
f 77/5/2 78/5/2 79/5/2
f 78/5/2 74/5/2 80/5/2
f 79/5/2 78/5/2 80/5/2
f 74/1/2 72/1/2 80/1/2
f 71/1/2 79/1/2 81/1/2
f 79/1/2 80/1/2 81/1/2
f 80/1/2 72/1/2 82/1/2
f 81/1/2 80/1/2 82/1/2
f 81/3/2 82/3/2 83/3/2
f 83/3/2 82/3/2 84/3/2
f 88/1/3 86/1/3 85/1/3
f 89/1/3 86/1/3 88/1/3
f 90/5/3 89/5/3 88/5/3
f 91/5/3 89/5/3 90/5/3
f 92/1/3 88/1/3 85/1/3
f 93/1/3 88/1/3 92/1/3
f 94/5/3 90/5/3 88/5/3
f 94/2/3 91/2/3 90/2/3
f 95/5/3 89/5/3 91/5/3
f 95/2/3 91/2/3 94/2/3
f 96/5/3 93/5/3 92/5/3
f 97/5/3 93/5/3 96/5/3
f 98/5/3 94/5/3 88/5/3
f 98/1/3 88/1/3 93/1/3
f 98/5/3 95/5/3 94/5/3
f 99/1/3 86/1/3 89/1/3
f 99/5/3 95/5/3 98/5/3
f 99/5/3 89/5/3 95/5/3
f 100/3/3 97/3/3 96/3/3
f 101/3/3 97/3/3 100/3/3
f 102/3/3 100/3/3 96/3/3
f 102/5/3 101/5/3 100/5/3
f 103/3/3 97/3/3 101/3/3
f 103/5/3 101/5/3 102/5/3
f 104/3/3 102/3/3 96/3/3
f 104/3/3 103/3/3 102/3/3
f 105/5/3 93/5/3 97/5/3
f 105/3/3 103/3/3 104/3/3
f 105/3/3 97/3/3 103/3/3
f 106/1/3 98/1/3 93/1/3
f 106/1/3 99/1/3 98/1/3
f 107/1/3 86/1/3 99/1/3
f 107/1/3 99/1/3 106/1/3
f 108/5/3 105/5/3 104/5/3
f 109/5/3 93/5/3 105/5/3
f 109/5/3 105/5/3 108/5/3
f 109/1/3 106/1/3 93/1/3
f 110/5/3 107/5/3 106/5/3
f 111/5/3 107/5/3 110/5/3
f 112/5/3 110/5/3 106/5/3
f 112/2/3 111/2/3 110/2/3
f 113/5/3 107/5/3 111/5/3
f 113/2/3 111/2/3 112/2/3
f 114/1/3 106/1/3 109/1/3
f 114/1/3 109/1/3 108/1/3
f 114/5/3 113/5/3 112/5/3
f 114/5/3 112/5/3 106/5/3
f 115/5/3 107/5/3 113/5/3
f 115/5/3 113/5/3 114/5/3
f 115/1/3 86/1/3 107/1/3
f 116/1/3 114/1/3 108/1/3
f 116/1/3 115/1/3 114/1/3
f 117/3/3 87/3/3 86/3/3
f 117/1/3 115/1/3 116/1/3
f 117/1/3 86/1/3 115/1/3
f 118/3/3 87/3/3 117/3/3
f 121/3/3 120/3/3 119/3/3
f 122/3/3 120/3/3 121/3/3
f 125/4/3 124/4/3 123/4/3
f 126/4/3 124/4/3 125/4/3
f 129/3/3 128/3/3 127/3/3
f 130/3/3 128/3/3 129/3/3
f 133/4/3 132/4/3 131/4/3
f 134/4/3 132/4/3 133/4/3
f 137/3/3 136/3/3 135/3/3
f 138/3/3 136/3/3 137/3/3
f 141/4/3 140/4/3 139/4/3
f 142/4/3 140/4/3 141/4/3
f 145/3/3 144/3/3 143/3/3
f 146/3/3 144/3/3 145/3/3
f 149/4/3 148/4/3 147/4/3
f 150/4/3 148/4/3 149/4/3
f 151/4/4 152/4/4 153/4/4
f 153/4/4 152/4/4 154/4/4
f 155/3/4 156/3/4 157/3/4
f 157/3/4 156/3/4 158/3/4
f 159/4/4 160/4/4 161/4/4
f 161/4/4 160/4/4 162/4/4
f 163/3/4 164/3/4 165/3/4
f 165/3/4 164/3/4 166/3/4
f 167/4/4 168/4/4 169/4/4
f 169/4/4 168/4/4 170/4/4
f 171/3/4 172/3/4 173/3/4
f 173/3/4 172/3/4 174/3/4
f 175/4/4 176/4/4 177/4/4
f 177/4/4 176/4/4 178/4/4
f 179/3/4 180/3/4 181/3/4
f 181/3/4 180/3/4 182/3/4
f 183/1/4 184/1/4 186/1/4
f 184/3/4 185/3/4 187/3/4
f 186/1/4 184/1/4 187/1/4
f 187/3/4 185/3/4 188/3/4
f 195/1/5 190/1/5 189/1/5
f 195/5/5 191/5/5 190/5/5
f 196/3/5 192/3/5 191/3/5
f 196/5/5 191/5/5 195/5/5
f 197/5/5 193/5/5 192/5/5
f 197/3/5 192/3/5 196/3/5
f 198/1/5 194/1/5 193/1/5
f 198/5/5 193/5/5 197/5/5
f 199/1/5 197/1/5 196/1/5
f 199/1/5 196/1/5 195/1/5
f 199/1/5 198/1/5 197/1/5
f 199/1/5 195/1/5 189/1/5
f 200/1/5 194/1/5 198/1/5
f 200/1/5 198/1/5 199/1/5
f 201/3/6 202/3/6 203/3/6
f 203/3/6 202/3/6 204/3/6
f 201/3/6 203/3/6 205/3/6
f 204/3/6 202/3/6 206/3/6
f 201/3/6 205/3/6 207/3/6
f 205/3/6 206/3/6 207/3/6
f 206/3/6 202/3/6 208/3/6
f 207/3/6 206/3/6 208/3/6
f 209/3/6 210/3/6 211/3/6
f 211/3/6 210/3/6 212/3/6
f 209/3/6 211/3/6 213/3/6
f 212/3/6 210/3/6 214/3/6
f 209/3/6 213/3/6 215/3/6
f 213/3/6 214/3/6 215/3/6
f 214/3/6 210/3/6 216/3/6
f 215/3/6 214/3/6 216/3/6
f 217/4/6 218/4/6 219/4/6
f 219/4/6 218/4/6 220/4/6
f 219/3/6 220/3/6 221/3/6
f 221/3/6 220/3/6 222/3/6
f 219/3/6 221/3/6 223/3/6
f 222/3/6 220/3/6 224/3/6
f 217/4/6 219/4/6 225/4/6
f 223/3/6 224/3/6 225/3/6
f 219/3/6 223/3/6 225/3/6
f 224/3/6 220/3/6 226/3/6
f 225/3/6 224/3/6 226/3/6
f 220/4/6 218/4/6 226/4/6
f 217/4/6 225/4/6 227/4/6
f 225/4/6 226/4/6 227/4/6
f 226/4/6 218/4/6 228/4/6
f 227/4/6 226/4/6 228/4/6
f 229/3/6 230/3/6 231/3/6
f 231/3/6 230/3/6 232/3/6
f 229/3/6 231/3/6 233/3/6
f 232/3/6 230/3/6 234/3/6
f 229/3/6 233/3/6 235/3/6
f 233/3/6 234/3/6 235/3/6
f 234/3/6 230/3/6 236/3/6
f 235/3/6 234/3/6 236/3/6
f 237/4/6 238/4/6 239/4/6
f 239/4/6 238/4/6 240/4/6
f 239/3/6 240/3/6 241/3/6
f 241/3/6 240/3/6 242/3/6
f 239/3/6 241/3/6 243/3/6
f 242/3/6 240/3/6 244/3/6
f 237/4/6 239/4/6 245/4/6
f 243/3/6 244/3/6 245/3/6
f 239/3/6 243/3/6 245/3/6
f 244/3/6 240/3/6 246/3/6
f 245/3/6 244/3/6 246/3/6
f 240/4/6 238/4/6 246/4/6
f 237/4/6 245/4/6 247/4/6
f 245/4/6 246/4/6 247/4/6
f 246/4/6 238/4/6 248/4/6
f 247/4/6 246/4/6 248/4/6
f 249/3/6 250/3/6 251/3/6
f 251/3/6 250/3/6 252/3/6
f 249/3/6 251/3/6 253/3/6
f 252/3/6 250/3/6 254/3/6
f 249/3/6 253/3/6 255/3/6
f 253/3/6 254/3/6 255/3/6
f 254/3/6 250/3/6 256/3/6
f 255/3/6 254/3/6 256/3/6
f 257/4/6 258/4/6 259/4/6
f 259/4/6 258/4/6 260/4/6
f 259/3/6 260/3/6 261/3/6
f 261/3/6 260/3/6 262/3/6
f 259/3/6 261/3/6 263/3/6
f 262/3/6 260/3/6 264/3/6
f 257/4/6 259/4/6 265/4/6
f 263/3/6 264/3/6 265/3/6
f 259/3/6 263/3/6 265/3/6
f 264/3/6 260/3/6 266/3/6
f 265/3/6 264/3/6 266/3/6
f 260/4/6 258/4/6 266/4/6
f 257/4/6 265/4/6 267/4/6
f 265/4/6 266/4/6 267/4/6
f 266/4/6 258/4/6 268/4/6
f 267/4/6 266/4/6 268/4/6
f 269/3/6 270/3/6 271/3/6
f 271/3/6 270/3/6 272/3/6
f 269/3/6 271/3/6 273/3/6
f 272/3/6 270/3/6 274/3/6
f 269/3/6 273/3/6 275/3/6
f 273/3/6 274/3/6 275/3/6
f 274/3/6 270/3/6 276/3/6
f 275/3/6 274/3/6 276/3/6
f 277/4/6 278/4/6 279/4/6
f 279/4/6 278/4/6 280/4/6
f 277/4/6 279/4/6 281/4/6
f 279/3/6 280/3/6 281/3/6
f 280/4/6 278/4/6 282/4/6
f 281/3/6 280/3/6 282/3/6
f 277/4/6 281/4/6 283/4/6
f 281/4/6 282/4/6 283/4/6
f 282/4/6 278/4/6 284/4/6
f 283/4/6 282/4/6 284/4/6
